<?xml version="1.0" standalone="no"?>
<!DOCTYPE svg PUBLIC "-//W3C//DTD SVG 20010904//EN"
 "http://www.w3.org/TR/2001/REC-SVG-20010904/DTD/svg10.dtd">
<svg version="1.0" xmlns="http://www.w3.org/2000/svg"
 width="403.000000pt" height="154.000000pt" viewBox="0 0 403.000000 154.000000"
 preserveAspectRatio="xMidYMid meet">

<g transform="translate(0.000000,154.000000) scale(0.100000,-0.100000)"
fill="#000000" stroke="none">
<path d="M102 923 l2 -278 6 264 5 264 114 -262 c62 -143 117 -261 121 -261 7
0 142 332 136 337 -2 2 -18 -33 -36 -78 -21 -52 -36 -76 -40 -68 -4 8 -33 75
-65 151 -35 83 -68 147 -85 163 -28 27 -80 44 -132 45 l-28 0 2 -277z"/>
<path d="M560 1180 c-13 -24 -13 -40 0 -20 6 10 10 -56 10 -195 0 -186 2 -214
19 -245 18 -34 54 -61 99 -75 l22 -6 0 228 c0 208 -2 231 -20 260 -20 33 -44
50 -91 63 -23 7 -31 5 -39 -10z"/>
<path d="M2329 1074 c-1 -286 -4 -318 -22 -352 -25 -45 -61 -61 -87 -37 -29
26 -43 79 -42 164 0 78 11 123 39 153 21 24 42 23 72 -4 l26 -23 -20 24 c-31
37 -73 54 -120 49 -94 -11 -139 -77 -139 -203 -1 -67 3 -87 24 -124 33 -58 80
-84 143 -78 53 5 87 30 118 87 14 28 18 31 19 14 0 -28 34 -70 70 -89 61 -32
60 -36 60 198 0 116 -5 228 -10 248 -12 44 -56 87 -98 95 l-32 7 -1 -129z"/>
<path d="M3306 1142 c-4 -3 -6 -27 -6 -53 0 -44 -2 -48 -27 -52 l-28 -4 28 -2
27 -1 0 -150 c0 -172 9 -202 65 -226 47 -19 84 -18 123 6 35 21 63 73 61 112
-1 13 -5 5 -11 -19 -5 -26 -19 -50 -35 -63 -31 -24 -37 -25 -57 -4 -13 13 -16
44 -16 179 l0 164 58 4 57 3 -57 2 c-50 2 -58 5 -58 21 0 31 -41 71 -82 80
-20 5 -39 6 -42 3z"/>
<path d="M536 1125 c-9 -26 -7 -32 5 -12 6 10 9 21 6 23 -2 3 -7 -2 -11 -11z"/>
<path d="M506 1050 c-22 -56 -19 -65 5 -11 11 24 18 46 15 48 -2 2 -11 -14
-20 -37z"/>
<path d="M887 1040 c-40 -12 -91 -54 -116 -93 -62 -100 -19 -231 93 -283 56
-26 91 -29 149 -13 46 13 109 67 131 113 20 42 21 116 2 159 -39 94 -158 147
-259 117z m113 -35 c23 -46 21 -279 -3 -322 -20 -38 -54 -44 -80 -15 -43 48
-44 306 -1 353 26 29 65 21 84 -16z"/>
<path d="M1312 1039 c-49 -14 -118 -88 -132 -141 -15 -54 0 -128 35 -174 29
-38 116 -84 159 -84 54 0 106 20 146 56 48 44 70 90 70 148 0 141 -136 236
-278 195z m115 -26 c24 -37 26 -281 3 -328 -19 -37 -58 -45 -84 -16 -41 46
-42 306 0 352 25 27 60 24 81 -8z"/>
<path d="M3011 1032 c-52 -26 -76 -65 -75 -119 1 -39 6 -51 36 -78 21 -19 63
-41 104 -55 38 -12 79 -29 92 -36 29 -19 29 -58 0 -78 -13 -9 -16 -16 -9 -16
7 0 31 17 52 39 31 31 39 46 39 75 0 77 -29 101 -193 160 -51 19 -69 41 -61
74 7 25 24 33 89 42 l50 7 -45 2 c-26 0 -60 -7 -79 -17z"/>
<path d="M1625 1032 c-3 -3 -5 -70 -5 -150 0 -160 9 -195 59 -225 16 -9 41
-17 55 -17 l26 0 0 135 c0 148 14 208 53 222 27 9 50 5 59 -10 4 -7 8 -59 8
-117 0 -58 5 -121 10 -141 13 -46 48 -78 94 -86 l36 -6 0 147 c0 161 -9 198
-55 234 -20 16 -42 22 -75 22 -55 0 -90 -23 -120 -78 -15 -30 -19 -33 -20 -15
0 30 -53 80 -90 85 -16 3 -32 2 -35 0z"/>
<path d="M2512 875 l3 -165 31 -31 c56 -55 163 -48 195 14 12 21 11 21 -8 5
-22 -20 -50 -23 -73 -8 -12 7 -16 39 -20 145 l-5 137 -37 34 c-23 20 -48 34
-64 34 l-25 0 3 -165z"/>
<path d="M2768 898 c-2 -79 -8 -152 -12 -163 -4 -12 -1 -10 8 5 14 24 15 24
16 4 0 -41 70 -104 115 -104 15 0 16 16 13 153 -3 121 -7 159 -21 184 -18 34
-62 63 -96 63 -18 0 -19 -9 -23 -142z"/>
<path d="M3162 1024 c15 -8 34 -27 42 -42 9 -15 15 -21 16 -14 0 17 -55 72
-72 72 -7 -1 -1 -7 14 -16z"/>
<path d="M3221 934 c0 -11 3 -14 6 -6 3 7 2 16 -1 19 -3 4 -6 -2 -5 -13z"/>
<path d="M2941 754 c0 -11 3 -14 6 -6 3 7 2 16 -1 19 -3 4 -6 -2 -5 -13z"/>
<path d="M2950 722 c0 -5 16 -24 35 -40 37 -33 83 -46 131 -39 22 3 19 4 -14
6 -56 1 -104 22 -130 56 -12 15 -22 23 -22 17z"/>
<path d="M3702 539 c-15 -66 -48 -125 -84 -152 -15 -11 -58 -28 -95 -38 -38
-9 -61 -19 -53 -22 8 -2 41 -12 74 -22 87 -25 123 -63 151 -160 13 -44 24 -72
24 -63 1 10 11 47 22 83 27 80 65 117 146 141 32 9 65 19 73 21 8 3 -15 12
-51 22 -104 26 -145 64 -170 156 -26 94 -24 92 -37 34z"/>
</g>
</svg>
